# xmcd
#
# Track frame offsets: 
#        150
#        9547
#        22607
#        36330
#        47572
#        58303
#        70087
#        80078
#        90422
#        102136
#        117816
#        134437
#        146178
#        157354
#        168675
#        180087
#        189817
#        201414
#        215188
#        225059
#
# Disc length: 3183 seconds
#
# Revision: 1
# Processed by: cddbd v1.5.2PL0 Copyright (c) Steve Scherf et al.
# Submitted via: ExactAudioCopy v0.99pb4
#
DISCID=110c6d14
DTITLE=The Rat Pack - 100 Hits Legends [CD4)
DYEAR=2009
DGENRE=Mix
TTITLE0=Sammy Davis Jr. - Something's Gotta Give
TTITLE1=Frank Sinatra - Swingin' Down The Lane
TTITLE2=Dean Martin - Bye, Bye Blackbird
TTITLE3=Sammy Davis Jr. - In A Persian Market
TTITLE4=Sammy Davis Jr. - Azure
TTITLE5=Dean Martin - You Can't Love `Em All
TTITLE6=Dean Martin - Me `n' You `n' The Moon
TTITLE7=Frank Sinatra - You're Getting To Be A Habit With Me
TTITLE8=Frank Sinatra - It Happened In Monterey
TTITLE9=Sammy Davis Jr. - There's A Small Hotel
TTITLE10=Sammy Davis Jr. - Come Rain Or Come Shine
TTITLE11=Dean Martin - Three Wishes
TTITLE12=Frank Sinatra - Blue Skies
TTITLE13=Dean Martin - Dreamy Old New England Moon
TTITLE14=Dean Martin - I'll Always Love You (Day After Day)
TTITLE15=Sammy Davis Jr. - Love (Your Magic Spell Is Everywhere)
TTITLE16=Sammy Davis Jr. - Smile, Darn Ya, Smile
TTITLE17=Dean Martin - Muskrat Ramble
TTITLE18=Dean Martin - Once In Love With Amy
TTITLE19=Frank Sinatra - One For My Baby (And One More For The Road)
EXTD=
EXTT0=
EXTT1=
EXTT2=
EXTT3=
EXTT4=
EXTT5=
EXTT6=
EXTT7=
EXTT8=
EXTT9=
EXTT10=
EXTT11=
EXTT12=
EXTT13=
EXTT14=
EXTT15=
EXTT16=
EXTT17=
EXTT18=
EXTT19=
PLAYORDER=
